<svg xmlns="http://www.w3.org/2000/svg" width="60" height="60" viewBox="0 0 60 60">
  <g id="c" transform="translate(0)">
    <path id="Exclusion_1" data-name="Exclusion 1" d="M30,60A30.008,30.008,0,0,1,18.323,2.358,30.008,30.008,0,0,1,41.678,57.642,29.812,29.812,0,0,1,30,60ZM19.748,16.129,30.121,40.868h.615l9.258-24.206V36.757a6.952,6.952,0,0,1-.23,2.112,1.384,1.384,0,0,1-.864.884,7.686,7.686,0,0,1-2.017.307v.768c1.3-.077,3.344-.116,6.071-.116,2.576,0,4.6.039,6.031.116v-.768a6.692,6.692,0,0,1-1.863-.307,1.332,1.332,0,0,1-.808-.884,7.571,7.571,0,0,1-.211-2.112V17.7a7.6,7.6,0,0,1,.211-2.113A1.339,1.339,0,0,1,47.1,14.7a6.443,6.443,0,0,1,1.882-.308v-.768c-1.412.076-3.442.114-6.031.114H40.225l-7.069,18.6L25.4,13.628c-1.693.076-3.736.114-6.071.114-1.4,0-2.525-.038-3.343-.114V14.4a6.629,6.629,0,0,1,1.864.307,1.344,1.344,0,0,1,.808.884,7.607,7.607,0,0,1,.211,2.113v17.29a15.532,15.532,0,0,1-.211,2.958,2.409,2.409,0,0,1-.808,1.46,4.1,4.1,0,0,1-1.864.653v.768c.816-.077,1.941-.116,3.343-.116,1.753,0,3.149.039,4.149.116v-.768a6.242,6.242,0,0,1-2.5-.671,2.3,2.3,0,0,1-1-1.538,17.192,17.192,0,0,1-.231-3.323v-18.4Z" transform="translate(0)" fill="#faf8fa"/>
    <path id="Path_4" data-name="Path 4" d="M50.113,23.014a23.1,23.1,0,0,1-7.593-1.9c-.586-.26-1.157-.548-1.723-.849a3.362,3.362,0,0,0-1.913-.522,4.265,4.265,0,0,0-1.688.737,1.879,1.879,0,0,1-1.127.277,2.61,2.61,0,0,1-2.282-1.744c-.124-.379-.763-.1-.916.1l-1.5,1.913-.659.841c-.122.153-.342.517-.558.535s-.5-.286-.636-.433a7.117,7.117,0,0,1-.551-.717,11.883,11.883,0,0,1-.911-1.545c-.1-.211-.2-.428-.291-.644.052-.127.1-.255.15-.382a14.407,14.407,0,0,0,.916-4.857,14.231,14.231,0,0,0-.953-5.392c-.127-.325-.8-.163-.916.1a13.579,13.579,0,0,0-.986,7.9,13.3,13.3,0,0,0,.815,2.821A7.389,7.389,0,0,1,25.48,21.4a2.891,2.891,0,0,1-1.48.978,1.8,1.8,0,0,1-1.427-.39,5.717,5.717,0,0,1-1.591-3.489c-.037-.19-.346-.182-.48-.158a.563.563,0,0,0-.465.333,12.531,12.531,0,0,1-3.312,5.43,8.248,8.248,0,0,1,.039-7.458c.1-.2-.091-.314-.268-.327a.715.715,0,0,0-.618.27,21.247,21.247,0,0,1-4.25,4.135,64.651,64.651,0,0,0-.07-9.292q-.076-.942-.179-1.88c-.039-.361-.986-.145-.943.252a63.913,63.913,0,0,1,.2,11.662c-.978.714-1.975,1.4-2.944,2.1C4.867,25.6,1.858,27.973.518,31.3a6.118,6.118,0,0,0-.075,4.909A3.225,3.225,0,0,0,2.187,37.8a4.176,4.176,0,0,0,2.921-.1,7.877,7.877,0,0,0,4.216-4.485,27.262,27.262,0,0,0,1.653-6.594q.4-2.513.59-5.052a29.689,29.689,0,0,0,3.588-3.04,8.569,8.569,0,0,0,.942,6.4c.158.26.664.042.82-.091a13.145,13.145,0,0,0,3.47-4.651,4.783,4.783,0,0,0,1.135,2.028,3.013,3.013,0,0,0,3.819.179,5.951,5.951,0,0,0,1.89-2.191,12.621,12.621,0,0,0,1.059,1.715,2.079,2.079,0,0,0,1.679,1.082c.932-.041,1.438-.831,1.957-1.493q.617-.786,1.233-1.573a3.233,3.233,0,0,0,1.778,1.287,3.456,3.456,0,0,0,1.514.107,4.32,4.32,0,0,0,1.61-.664,1.937,1.937,0,0,1,.677-.322,1.615,1.615,0,0,1,.852.19c.607.273,1.181.618,1.784.9a23.933,23.933,0,0,0,3.868,1.414,24.535,24.535,0,0,0,4.512.771.681.681,0,0,0,.618-.27c.1-.2-.089-.312-.268-.327ZM10.338,24.553a43.782,43.782,0,0,1-1.261,6.8,9.684,9.684,0,0,1-3.052,5.166,3.926,3.926,0,0,1-2.37.9,2.6,2.6,0,0,1-2-1.046,5.181,5.181,0,0,1-.4-4.553A11.379,11.379,0,0,1,3.883,27.63,27.114,27.114,0,0,1,7.75,24.305c.927-.683,1.88-1.345,2.824-2.02-.067.756-.143,1.511-.236,2.266ZM26.792,12.593A12.966,12.966,0,0,1,27.348,9.9a14.215,14.215,0,0,1,.011,7.683c-.018.063-.036.129-.055.194a13.377,13.377,0,0,1-.512-5.186Z" transform="translate(4.51 5.478)" fill="#e259ae"/>
  </g>
</svg>
